<svg width="55" height="55" viewBox="0 0 55 55" fill="none" xmlns="http://www.w3.org/2000/svg">
<rect width="55" height="55" stroke="black"/>
<path d="M13.75 43.5417V45.8334C13.75 46.4827 13.5304 47.027 13.0911 47.4662C12.6519 47.9054 12.1076 48.125 11.4583 48.125H9.16667C8.51736 48.125 7.97309 47.9054 7.53385 47.4662C7.09462 47.027 6.875 46.4827 6.875 45.8334V27.5L11.6875 13.75C11.9167 13.0625 12.3273 12.5087 12.9193 12.0886C13.5113 11.6684 14.1701 11.4584 14.8958 11.4584H40.1042C40.8299 11.4584 41.4887 11.6684 42.0807 12.0886C42.6727 12.5087 43.0833 13.0625 43.3125 13.75L48.125 27.5V45.8334C48.125 46.4827 47.9054 47.027 47.4661 47.4662C47.0269 47.9054 46.4826 48.125 45.8333 48.125H43.5417C42.8924 48.125 42.3481 47.9054 41.9089 47.4662C41.4696 47.027 41.25 46.4827 41.25 45.8334V43.5417H13.75ZM13.2917 22.9167H41.7083L39.3021 16.0417H15.6979L13.2917 22.9167ZM17.1875 36.6667C18.1424 36.6667 18.954 36.3325 19.6224 35.6641C20.2908 34.9957 20.625 34.1841 20.625 33.2292C20.625 32.2743 20.2908 31.4627 19.6224 30.7943C18.954 30.1259 18.1424 29.7917 17.1875 29.7917C16.2326 29.7917 15.421 30.1259 14.7526 30.7943C14.0842 31.4627 13.75 32.2743 13.75 33.2292C13.75 34.1841 14.0842 34.9957 14.7526 35.6641C15.421 36.3325 16.2326 36.6667 17.1875 36.6667ZM37.8125 36.6667C38.7674 36.6667 39.579 36.3325 40.2474 35.6641C40.9158 34.9957 41.25 34.1841 41.25 33.2292C41.25 32.2743 40.9158 31.4627 40.2474 30.7943C39.579 30.1259 38.7674 29.7917 37.8125 29.7917C36.8576 29.7917 36.046 30.1259 35.3776 30.7943C34.7092 31.4627 34.375 32.2743 34.375 33.2292C34.375 34.1841 34.7092 34.9957 35.3776 35.6641C36.046 36.3325 36.8576 36.6667 37.8125 36.6667ZM11.4583 38.9584H43.5417V27.5H11.4583V38.9584Z" fill="#B3261E"/>
</svg>
