<svg width="24" height="24" viewBox="0 0 24 24" fill="none" xmlns="http://www.w3.org/2000/svg">
<path d="M15.9999 8C17.5912 8 19.1173 8.63214 20.2425 9.75736C21.3677 10.8826 21.9999 12.4087 21.9999 14V21H17.9999V14C17.9999 13.4696 17.7892 12.9609 17.4141 12.5858C17.039 12.2107 16.5303 12 15.9999 12C15.4694 12 14.9607 12.2107 14.5857 12.5858C14.2106 12.9609 13.9999 13.4696 13.9999 14V21H9.99988V14C9.99988 12.4087 10.632 10.8826 11.7572 9.75736C12.8825 8.63214 14.4086 8 15.9999 8Z" stroke="#FF014F" stroke-width="2" stroke-linecap="round" stroke-linejoin="round"/>
<path d="M5.99988 9H1.99988V21H5.99988V9Z" stroke="#FF014F" stroke-width="2" stroke-linecap="round" stroke-linejoin="round"/>
<path d="M3.99988 6C5.10445 6 5.99988 5.10457 5.99988 4C5.99988 2.89543 5.10445 2 3.99988 2C2.89531 2 1.99988 2.89543 1.99988 4C1.99988 5.10457 2.89531 6 3.99988 6Z" stroke="#FF014F" stroke-width="2" stroke-linecap="round" stroke-linejoin="round"/>
</svg>
