<svg width="24" height="24" viewBox="0 0 24 24" fill="none" xmlns="http://www.w3.org/2000/svg">
<g clip-path="url(#clip0_1_75)">
<path d="M23.0002 3.00005C22.0426 3.67552 20.9823 4.19216 19.8602 4.53005C19.2579 3.83756 18.4575 3.34674 17.5672 3.12397C16.6769 2.90121 15.7397 2.95724 14.8823 3.2845C14.0248 3.61176 13.2886 4.19445 12.7732 4.95376C12.2577 5.71308 11.9879 6.61238 12.0002 7.53005V8.53005C10.2428 8.57561 8.50146 8.18586 6.93119 7.39549C5.36093 6.60513 4.0105 5.43868 3.00018 4.00005C3.00018 4.00005 -0.999817 13 8.00018 17C5.94071 18.398 3.48734 19.099 1.00018 19C10.0002 24 21.0002 19 21.0002 7.50005C20.9993 7.2215 20.9725 6.94364 20.9202 6.67005C21.9408 5.66354 22.661 4.39276 23.0002 3.00005Z" stroke="#FF014F" stroke-width="2" stroke-linecap="round" stroke-linejoin="round"/>
</g>
<defs>
<clipPath id="clip0_1_75">
<rect width="24" height="24" fill="white"/>
</clipPath>
</defs>
</svg>
